<?xml version="1.0" encoding="UTF-8" standalone="no"?>
<!-- Created with Inkscape (http://www.inkscape.org/) -->

<svg
   width="110.49694mm"
   height="135.61638mm"
   viewBox="0 0 110.49694 135.61638"
   version="1.1"
   id="svg5"
   inkscape:version="1.1.1 (3bf5ae0d25, 2021-09-20)"
   sodipodi:docname="garbage.svg"
   xmlns:inkscape="http://www.inkscape.org/namespaces/inkscape"
   xmlns:sodipodi="http://sodipodi.sourceforge.net/DTD/sodipodi-0.dtd"
   xmlns="http://www.w3.org/2000/svg"
   xmlns:svg="http://www.w3.org/2000/svg">
  <sodipodi:namedview
     id="namedview7"
     pagecolor="#ffffff"
     bordercolor="#999999"
     borderopacity="1"
     inkscape:pageshadow="0"
     inkscape:pageopacity="0"
     inkscape:pagecheckerboard="0"
     inkscape:document-units="mm"
     showgrid="false"
     fit-margin-top="0"
     fit-margin-left="0"
     fit-margin-right="0"
     fit-margin-bottom="0"
     inkscape:zoom="0.77771465"
     inkscape:cx="180.65752"
     inkscape:cy="193.51571"
     inkscape:window-width="3840"
     inkscape:window-height="2125"
     inkscape:window-x="0"
     inkscape:window-y="35"
     inkscape:window-maximized="1"
     inkscape:current-layer="layer1" />
  <defs
     id="defs2" />
  <g
     inkscape:label="Layer 1"
     inkscape:groupmode="layer"
     id="layer1"
     transform="translate(-57.273989,-97.19052)">
    <path
       style="fill:#020202;stroke:none;stroke-width:0.264583"
       d="M 91.356736,114.17644 H 72.042158 c -4.09067,0 -8.181234,-0.0956 -11.353191,2.95635 -4.656561,4.48037 -3.198892,12.37307 -3.198892,18.21031 0,2.15873 -0.526917,5.05883 0.941361,6.85138 1.427216,1.74229 3.642201,1.61529 5.673222,1.61529 0,9.0797 0.915538,18.18639 1.312492,27.25208 0.4776,10.90665 0.518875,21.94163 1.552999,32.80833 0.665427,6.99241 -1.230419,16.51238 2.549075,22.75416 4.144565,6.84478 11.734402,6.08542 18.662522,6.08542 h 47.360404 c 6.57728,0 14.54732,1.19036 19.07646,-4.76276 4.72202,-6.2066 2.93291,-16.45391 3.43694,-23.81224 0.75988,-11.09689 0.82735,-22.24114 1.5875,-33.3375 0.61172,-8.9363 1.2991,-18.02632 1.2991,-26.98749 2.01825,0 4.26191,0.13414 5.67029,-1.61529 1.44542,-1.79493 0.9443,-4.70587 0.9443,-6.85138 0,-5.82374 1.45071,-13.73669 -3.19882,-18.21031 -3.18796,-3.06737 -7.24085,-2.95635 -11.35327,-2.95635 h -19.31458 c 0,-2.58628 0.14235,-5.14528 -0.50165,-7.67292 -2.69531,-10.579857 -14.09673,-9.260417 -22.5171,-9.260417 -5.57688,0 -11.296384,-0.57431 -15.600094,3.714777 -3.71792,3.70557 -3.71449,8.3303 -3.71449,13.21856 m 33.866674,0 H 99.823406 c 0,-2.38662 -0.58658,-5.54839 1.351494,-7.34894 1.50892,-1.40173 3.63009,-1.11773 5.52768,-1.11773 h 11.90624 c 1.83039,0 3.81053,-0.23162 5.26309,1.11773 1.93808,1.80055 1.3515,4.96232 1.3515,7.34894 m 33.86666,21.16666 H 65.956742 v -8.99583 c 4.76e-4,-1.21391 -0.146447,-2.69783 1.08712,-3.39223 1.459785,-0.82171 4.160572,-0.31194 5.792046,-0.31194 h 13.758338 50.535404 15.34584 c 1.57982,0 4.43336,-0.54195 5.76051,0.46098 1.06759,0.8069 0.85407,2.33064 0.85407,3.50777 v 8.73125 m -6.61458,8.46667 c 0,18.70418 -2.18387,37.40123 -2.64187,56.09166 -0.13202,5.3848 -0.40613,10.76907 -0.7739,16.13958 -0.14817,2.16059 0.38788,4.72811 -1.03029,6.5868 -1.87272,2.45428 -6.08383,1.61528 -8.78311,1.61528 H 114.64007 87.917156 c -2.93476,0 -7.859711,0.95885 -10.2698,-1.0025 -1.938073,-1.57745 -1.611048,-4.18121 -1.637507,-6.40583 -0.04815,-4.04918 -0.129116,-8.41428 -0.603514,-12.43541 -1.048015,-8.87995 -0.866775,-18.05305 -1.257829,-26.9875 -0.489744,-11.18024 -1.577181,-22.40386 -1.577181,-33.60208 h 79.904165 m -62.177084,8.6143 c -4.68841,1.2229 -3.175,8.68362 -3.175,12.28778 v 38.89375 c 0,3.60547 -1.45071,13.44771 5.02708,12.02981 4.96729,-1.08744 3.43959,-8.55266 3.43959,-12.2944 v -39.15833 c 0,-3.64675 1.29249,-13.47602 -5.29167,-11.75861 m 21.166664,0 c -4.68841,1.2229 -3.17499,8.68362 -3.17499,12.28778 v 38.89375 c 0,3.60547 -1.45071,13.44771 5.02708,12.02981 4.96728,-1.08744 3.43958,-8.55266 3.43958,-12.2944 v -39.15833 c 0,-3.64675 1.29249,-13.47602 -5.29167,-11.75861 m 21.16667,0 c -4.68842,1.2229 -3.175,8.68362 -3.175,12.28778 v 38.89375 c 0,3.60547 -1.45071,13.44771 5.02708,12.02981 4.96729,-1.08744 3.43958,-8.55266 3.43958,-12.2944 v -39.15833 c 0,-3.64675 1.29249,-13.47602 -5.29166,-11.75861 z"
       id="path69" />
  </g>
</svg>
